#!OML:ASF E:\motion texture\Top Level 1\Subject 1\Session 1\male.ASF
:FULLY-SPECIFIED
:DEGREES
174
root 33.7517 17.4973 5.88423 163.614 -81.8149 -153.886
lowerback -2.15778 1.52697 2.48205
upperback -1.31524 1.94323 2.37788
thorax -0.138594 0.946099 1.08519
lowerneck -16.7557 -5.11394 -8.74971
upperneck 28.7669 -7.08111 5.40675
head 12.9084 -3.60809 2.38143
rclavicle 2.35063e-014 1.43125e-014
rhumerus -15.6726 4.00237 -91.8606
rradius 55.4424
rwrist -32.8128
rhand 1.54582 -30.3623
rfingers 7.12502
rthumb 27.0701 -58.4418
lclavicle 2.35063e-014 1.43125e-014
lhumerus -65.2238 50.1491 34.7626
lradius 11.0343
lwrist -69.0938
lhand -8.04215 24.2187
lfingers 7.12502
lthumb 17.8683 53.4178
rfemur -6.72142 2.22907 21.16
rtibia 44.4397
rfoot 3.72034 -10.3115
rtoes 0.748471
lfemur -26.887 -2.93883 -13.773
ltibia 19.9122
lfoot -2.17778 6.80792
ltoes -0.152447
175
root 33.6098 17.5101 5.90609 164.867 -81.8634 -155.255
lowerback -2.07882 1.47324 2.32031
upperback -1.27309 1.87902 2.33324
thorax -0.143155 0.916029 1.12681
lowerneck -16.7648 -5.08643 -8.75198
upperneck 28.8354 -7.02959 5.3492
head 12.9316 -3.59483 2.36838
rclavicle 6.21202e-015 2.90226e-014
rhumerus -16.1133 3.82159 -91.6014
rradius 55.1882
rwrist -31.7052
rhand 1.08913 -30.1754
rfingers 7.12502
rthumb 26.6332 -58.3221
lclavicle 6.21202e-015 2.90226e-014
lhumerus -65.0754 49.6364 35.1566
lradius 11.0922
lwrist -68.4277
lhand -7.80802 24.1106
lfingers 7.12502
lthumb 18.0936 53.289
rfemur -7.6417 1.96815 20.7746
rtibia 45.8535
rfoot 4.40961 -10.7104
rtoes 1.69412
lfemur -26.2488 -2.99497 -14.2521
ltibia 19.9039
lfoot -2.44939 6.74759
ltoes 0.160415
176
root 33.4686 17.5226 5.92731 166.067 -81.9192 -156.574
lowerback -1.99793 1.41562 2.16113
upperback -1.23409 1.80932 2.29192
thorax -0.151805 0.88306 1.17037
lowerneck -16.7702 -5.05399 -8.75059
upperneck 28.8996 -6.97214 5.29248
head 12.9516 -3.57854 2.35607
rclavicle 9.19379e-015 1.82882e-014
rhumerus -16.5907 3.63065 -91.3294
rradius 54.8738
rwrist -30.5575
rhand 0.575708 -30.0253
rfingers 7.12502
rthumb 26.1417 -58.2457
lclavicle 9.19379e-015 1.82882e-014
lhumerus -64.6172 49.0222 35.9516
lradius 11.1812
lwrist -67.5046
lhand -7.58358 24.0099
lfingers 7.12502
lthumb 18.3095 53.1682
rfemur -8.59253 1.6996 20.4089
rtibia 47.2358
rfoot 5.00712 -11.1242
rtoes 2.59139
lfemur -25.5959 -3.05233 -14.7236
ltibia 19.873
lfoot -2.7469 6.68285
ltoes 0.446116
177
root 33.3281 17.5348 5.9479 167.203 -81.9889 -157.829
lowerback -1.91407 1.3527 2.00563
upperback -1.19769 1.73227 2.25373
thorax -0.164464 0.846286 1.21501
lowerneck -16.777 -5.01814 -8.74558
upperneck 28.96 -6.91039 5.23682
head 12.9699 -3.55975 2.34423
rclavicle 3.77691e-015 4.77083e-015
rhumerus -17.1012 3.42652 -91.0436
rradius 54.4971
rwrist -29.3758
rhand 0.0323409 -29.8916
rfingers 7.12502
rthumb 25.6213 -58.1879
lclavicle 3.77691e-015 4.77083e-015
lhumerus -63.8956 48.3156 37.0922
lradius 11.3021
lwrist -66.3542
lhand -7.36847 23.9156
lfingers 7.12502
lthumb 18.5164 53.0543
rfemur -9.56879 1.41823 20.0643
rtibia 48.5755
rfoot 5.50957 -11.5506
rtoes 3.43659
lfemur -24.9324 -3.11443 -15.1875
ltibia 19.823
lfoot -3.06492 6.61224
ltoes 0.710452
178
root 33.1885 17.5466 5.9678 168.286 -82.0701 -159.03
lowerback -1.83424 1.28579 1.85644
upperback -1.15962 1.64926 2.21641
thorax -0.172678 0.80645 1.25723
lowerneck -16.7869 -4.97919 -8.73517
upperneck 29.0133 -6.84547 5.18436
head 12.9856 -3.5383 2.33318
rclavicle -3.03147e-015 -1.63003e-014
rhumerus -17.6369 3.20411 -90.7466
rradius 54.0559
rwrist -28.1658
rhand -0.53984 -29.7825
rfingers 7.12502
rthumb 25.0732 -58.1565
lclavicle -3.03147e-015 -1.63003e-014
lhumerus -62.9667 47.5361 38.5006
lradius 11.4526
lwrist -65.0226
lhand -7.16503 23.8293
lfingers 7.12502
lthumb 18.7121 52.9493
rfemur -10.5687 1.12809 19.7414
rtibia 49.8648
rfoot 5.91452 -11.9884
rtoes 4.22671
lfemur -24.2596 -3.18114 -15.6422
ltibia 19.7539
lfoot -3.39983 6.54065
ltoes 0.941864
179
root 33.0498 17.5581 5.98691 169.318 -82.1641 -160.183
lowerback -1.76379 1.21376 1.71245
upperback -1.11698 1.5586 2.18051
thorax -0.170486 0.762739 1.29835
lowerneck -16.7967 -4.93685 -8.71984
upperneck 29.0566 -6.77677 5.13496
head 12.9968 -3.51403 2.32307
rclavicle 7.15625e-015 6.36111e-015
rhumerus -18.193 2.96552 -90.4386
rradius 53.5465
rwrist -26.9328
rhand -1.13662 -29.7032
rfingers 7.12502
rthumb 24.5012 -58.1559
lclavicle 7.15625e-015 6.36111e-015
lhumerus -61.8785 46.6929 40.1174
lradius 11.6333
lwrist -63.5392
lhand -6.97767 23.7465
lfingers 7.12502
lthumb 18.8923 52.849
rfemur -11.5865 0.8299 19.4409
rtibia 51.0948
rfoot 6.22179 -12.4365
rtoes 4.96035
lfemur -23.5749 -3.25155 -16.0875
ltibia 19.6625
lfoot -3.74702 6.46536
ltoes 1.14424
180
root 32.9119 17.569 6.00521 170.306 -82.2722 -161.291
lowerback -1.69047 1.13759 1.56989
upperback -1.07711 1.46223 2.14776
thorax -0.172405 0.716058 1.34188
lowerneck -16.8101 -4.89253 -8.7017
upperneck 29.0979 -6.70609 5.08796
head 13.0077 -3.48814 2.31369
rclavicle -2.18663e-015 1.07344e-014
rhumerus -18.7769 2.70733 -90.1154
rradius 52.968
rwrist -25.6843
rhand -1.7587 -29.6586
rfingers 7.12502
rthumb 23.9048 -58.1907
lclavicle -2.18663e-015 1.07344e-014
lhumerus -60.6829 45.787 41.8834
lradius 11.8444
lwrist -61.9373
lhand -6.80619 23.6745
lfingers 7.12502
lthumb 19.0572 52.7608
rfemur -12.6193 0.52295 19.1624
rtibia 52.2566
rfoot 6.4314 -12.8935
rtoes 5.63478
lfemur -22.8808 -3.32683 -16.5233
ltibia 19.55
lfoot -4.10444 6.38485
ltoes 1.31898
181
root 32.7748 17.5794 6.02258 171.264 -82.392 -162.369
lowerback -1.61987 1.05785 1.42891
upperback -1.03586 1.3607 2.11678
thorax -0.170992 0.66672 1.38652
lowerneck -16.8251 -4.84591 -8.68
upperneck 29.1329 -6.6333 5.04481
head 13.0163 -3.46022 2.3055
rclavicle 5.66536e-015 3.18055e-015
rhumerus -19.3814 2.42787 -89.7791
rradius 52.3174
rwrist -24.4254
rhand -2.40555 -29.6539
rfingers 7.12502
rthumb 23.2844 -58.2659
lclavicle 5.66536e-015 3.18055e-015
lhumerus -59.4155 44.8314 43.7463
lradius 12.0857
lwrist -60.2488
lhand -6.65175 23.6118
lfingers 7.12502
lthumb 19.2057 52.6835
rfemur -13.6624 0.212186 18.9061
rtibia 53.3424
rfoot 6.5454 -13.3593
rtoes 6.2465
lfemur -22.1759 -3.40465 -16.9495
ltibia 19.4156
lfoot -4.46822 6.29955
ltoes 1.4518
182
root 32.6386 17.5892 6.03947 172.186 -82.5373 -163.408
lowerback -1.55766 0.970245 1.29524
upperback -0.99706 1.24811 2.08627
thorax -0.166706 0.611727 1.42772
lowerneck -16.8337 -4.79677 -8.65702
upperneck 29.1603 -6.55892 5.0071
head 13.0204 -3.43078 2.29956
rclavicle -6.55989e-015 -1.11319e-014
rhumerus -20.0099 2.12648 -89.4289
rradius 51.594
rwrist -23.1654
rhand -3.07447 -29.6886
rfingers 7.12502
rthumb 22.6425 -58.3804
lclavicle -6.55989e-015 -1.11319e-014
lhumerus -58.1102 43.8295 45.6638
lradius 12.3577
lwrist -58.4961
lhand -6.51687 23.5597
lfingers 7.12502
lthumb 19.3354 52.6185
rfemur -14.7153 -0.117354 18.6674
rtibia 54.3438
rfoot 6.56355 -13.8328
rtoes 6.80054
lfemur -21.4715 -3.50202 -17.3687
ltibia 19.2655
lfoot -4.83391 6.21035
ltoes 1.55249
183
root 32.5033 17.5985 6.05542 173.095 -82.6955 -164.431
lowerback -1.48637 0.879562 1.15867
upperback -0.966404 1.13156 2.05996
thorax -0.175548 0.554658 1.47474
lowerneck -16.8407 -4.74577 -8.6332
upperneck 29.1886 -6.48285 4.9709
head 13.0245 -3.40041 2.29438
rclavicle -1.11319e-014 -2.50469e-014
rhumerus -20.6685 1.80061 -89.06
rradius 50.7965
rwrist -21.9112
rhand -3.75463 -29.7626
rfingers 7.12502
rthumb 21.9896 -58.5326
lclavicle -1.11319e-014 -2.50469e-014
lhumerus -56.8011 42.7833 47.5993
lradius 12.6617
lwrist -56.7016
lhand -6.40352 23.5162
lfingers 7.12502
lthumb 19.4444 52.564
rfemur -15.7718 -0.45031 18.4492
rtibia 55.2539
rfoot 6.49116 -14.3125
rtoes 7.30287
lfemur -20.7596 -3.60228 -17.7784
ltibia 19.0948
lfoot -5.19689 6.11207
ltoes 1.62999
184
root 32.369 17.6071 6.07037 173.989 -82.869 -165.438
lowerback -1.4236 0.784737 1.02488
upperback -0.934944 1.00898 2.03425
thorax -0.178225 0.494504 1.52109
lowerneck -16.8398 -4.693 -8.60819
upperneck 29.2066 -6.40674 4.94211
head 13.0229 -3.36888 2.29196
rclavicle 5.41688e-015 -7.55382e-015
rhumerus -21.3456 1.44735 -88.6766
rradius 49.9279
rwrist -20.6664
rhand -4.44453 -29.8826
rfingers 7.12502
rthumb 21.327 -58.7291
lclavicle 5.41688e-015 -7.55382e-015
lhumerus -55.5001 41.7149 49.5174
lradius 12.9954
lwrist -54.8949
lhand -6.31808 23.4747
lfingers 7.12502
lthumb 19.5266 52.5141
rfemur -16.8281 -0.78784 18.252
rtibia 56.0648
rfoot 6.33132 -14.797
rtoes 7.75252
lfemur -20.0442 -3.70392 -18.1778
ltibia 18.9072
lfoot -5.5576 5.99956
ltoes 1.68335
185
root 32.2357 17.6153 6.08409 174.875 -83.0496 -166.436
lowerback -1.36029 0.690141 0.890636
upperback -0.90188 0.886466 2.0097
thorax -0.179152 0.434341 1.56908
lowerneck -16.8489 -4.64144 -8.57899
upperneck 29.2221 -6.33354 4.91799
head 13.0227 -3.33717 2.28999
rclavicle -4.67144e-015 -1.55052e-014
rhumerus -22.0348 1.0598 -88.2757
rradius 48.986
rwrist -19.4353
rhand -5.14249 -30.0487
rfingers 7.12502
rthumb 20.6565 -58.9695
lclavicle -4.67144e-015 -1.55052e-014
lhumerus -54.2149 40.6349 51.3987
lradius 13.358
lwrist -53.0981
lhand -6.25373 23.4504
lfingers 7.12502
lthumb 19.5884 52.4836
rfemur -17.8805 -1.1193 18.0779
rtibia 56.7721
rfoot 6.08552 -15.2864
rtoes 8.15882
lfemur -19.3226 -3.80062 -18.5639
ltibia 18.7032
lfoot -5.91625 5.87498
ltoes 1.71496
186
root 32.1032 17.6228 6.09686 175.749 -83.2449 -167.42
lowerback -1.3021 0.593206 0.760173
upperback -0.867532 0.76044 1.98604
thorax -0.175335 0.372338 1.61608
lowerneck -16.8614 -4.59083 -8.54795
upperneck 29.2322 -6.26305 4.89958
head 13.0214 -3.30541 2.28939
rclavicle -8.05078e-015 -2.06736e-014
rhumerus -22.7355 0.634196 -87.8549
rradius 47.9705
rwrist -18.2174
rhand -5.83837 -30.2599
rfingers 7.12502
rthumb 19.9877 -59.2519
lclavicle -8.05078e-015 -2.06736e-014
lhumerus -52.9544 39.5473 53.2305
lradius 13.7505
lwrist -51.3213
lhand -6.21486 23.4382
lfingers 7.12502
lthumb 19.6258 52.4676
rfemur -18.9234 -1.45188 17.924
rtibia 57.3662
rfoot 5.75984 -15.7782
rtoes 8.52623
lfemur -18.5994 -3.90092 -18.9378
ltibia 18.4861
lfoot -6.27133 5.74179
ltoes 1.72358
